<svg width="384" height="127" viewBox="0 0 384 127" fill="none" xmlns="http://www.w3.org/2000/svg">
<circle cx="149" cy="70" r="50" fill="#020202"/>
<path d="M135.768 51.52H133.368C132.664 49.664 131.928 47.488 131.16 44.992C130.456 42.496 129.848 40.128 129.336 37.888C131.576 35.968 134.264 34.464 137.4 33.376C140.536 32.224 143.928 31.648 147.576 31.648C150.776 31.648 153.528 32.096 155.832 32.992C158.136 33.888 160.024 35.104 161.496 36.64C163.032 38.176 164.152 39.968 164.856 42.016C165.56 44 165.912 46.08 165.912 48.256C165.912 51.84 165.08 55.52 163.416 59.296C161.752 63.072 159.672 66.752 157.176 70.336C154.744 73.856 152.088 77.184 149.208 80.32C146.328 83.456 143.672 86.208 141.24 88.576L137.208 92.32V92.704L142.584 92.128H159.096L163.8 81.376H166.2C166.328 82.784 166.456 84.32 166.584 85.984C166.712 87.648 166.808 89.344 166.872 91.072C167 92.736 167.096 94.368 167.16 95.968C167.224 97.504 167.256 98.848 167.256 100H127.608V96.928C129.016 95.456 130.712 93.664 132.696 91.552C134.744 89.44 136.856 87.104 139.032 84.544C141.208 81.984 143.352 79.264 145.464 76.384C147.64 73.504 149.56 70.592 151.224 67.648C152.888 64.64 154.232 61.664 155.256 58.72C156.344 55.776 156.888 52.96 156.888 50.272C156.888 48.416 156.632 46.656 156.12 44.992C155.672 43.328 154.968 41.888 154.008 40.672C153.048 39.392 151.864 38.4 150.456 37.696C149.112 36.992 147.544 36.64 145.752 36.64C144.408 36.64 143.224 36.736 142.2 36.928C141.176 37.12 140.056 37.408 138.84 37.792L135.768 51.52Z" fill="white"/>
<path d="M1.44 54.304C3.872 52.768 6.432 51.68 9.12 51.04V42.88C9.952 42.176 10.912 41.568 12 41.056C13.152 40.48 14.272 39.936 15.36 39.424H17.76V52H32.16V56.8H17.76V84.64C17.76 88.48 18.368 91.2 19.584 92.8C20.8 94.4 22.624 95.2 25.056 95.2C26.208 95.2 27.648 95.136 29.376 95.008C31.104 94.816 32.576 94.496 33.792 94.048L34.464 95.488C33.952 96.064 33.216 96.672 32.256 97.312C31.36 97.952 30.304 98.56 29.088 99.136C27.936 99.712 26.656 100.192 25.248 100.576C23.84 100.96 22.4 101.152 20.928 101.152C17.088 101.152 14.144 100.064 12.096 97.888C10.112 95.712 9.12 92.192 9.12 87.328V56.8H1.44V54.304ZM39.561 76C39.561 71.968 40.073 68.416 41.097 65.344C42.185 62.208 43.721 59.584 45.705 57.472C47.689 55.296 50.057 53.664 52.809 52.576C55.625 51.424 58.729 50.848 62.121 50.848C66.089 50.848 69.513 51.456 72.393 52.672C75.273 53.888 77.609 55.616 79.401 57.856C81.257 60.032 82.601 62.656 83.433 65.728C84.329 68.8 84.777 72.224 84.777 76C84.777 84.064 82.729 90.272 78.633 94.624C74.537 98.976 69.033 101.152 62.121 101.152C58.281 101.152 54.953 100.576 52.137 99.424C49.321 98.208 46.985 96.512 45.129 94.336C43.273 92.096 41.865 89.44 40.905 86.368C40.009 83.232 39.561 79.776 39.561 76ZM48.777 76C48.777 78.88 49.033 81.6 49.545 84.16C50.121 86.72 50.985 88.96 52.137 90.88C53.353 92.736 54.921 94.208 56.841 95.296C58.761 96.384 61.065 96.928 63.753 96.928C67.209 96.928 70.025 95.232 72.201 91.84C74.441 88.448 75.561 83.168 75.561 76C75.561 73.056 75.273 70.336 74.697 67.84C74.185 65.28 73.353 63.072 72.201 61.216C71.049 59.296 69.577 57.792 67.785 56.704C65.993 55.616 63.849 55.072 61.353 55.072C57.577 55.072 54.537 56.768 52.233 60.16C49.929 63.552 48.777 68.832 48.777 76ZM228.83 59.2C228.126 59.584 227.23 60.384 226.142 61.6C225.118 62.752 224.19 64.48 223.358 66.784V95.296C224.638 95.424 225.918 95.68 227.198 96.064C228.478 96.384 229.758 96.896 231.038 97.6V100H208.382V97.6C209.534 96.96 210.622 96.48 211.646 96.16C212.67 95.84 213.694 95.552 214.718 95.296V57.568L208.382 56.8V54.304C210.43 53.408 212.542 52.704 214.718 52.192C216.894 51.616 218.974 51.168 220.958 50.848H223.358V61.024H223.742C224.318 59.744 225.118 58.464 226.142 57.184C227.23 55.904 228.446 54.752 229.79 53.728C231.198 52.704 232.702 51.936 234.302 51.424C235.966 50.848 237.662 50.656 239.39 50.848C239.838 51.68 240.222 52.608 240.542 53.632C240.926 54.592 241.278 55.616 241.598 56.704V59.2H228.83ZM285.066 93.28C284.554 94.368 283.754 95.392 282.666 96.352C281.578 97.312 280.33 98.144 278.922 98.848C277.514 99.552 275.978 100.096 274.314 100.48C272.65 100.928 270.954 101.152 269.226 101.152C265.45 101.152 262.122 100.576 259.242 99.424C256.362 98.208 253.962 96.512 252.042 94.336C250.122 92.096 248.65 89.44 247.626 86.368C246.666 83.296 246.186 79.84 246.186 76C246.186 67.808 248.074 61.568 251.85 57.28C255.626 52.992 260.97 50.848 267.882 50.848C270.122 50.848 272.33 51.168 274.506 51.808C276.682 52.384 278.602 53.376 280.266 54.784C281.994 56.192 283.37 58.08 284.394 60.448C285.482 62.752 286.026 65.632 286.026 69.088C286.026 70.176 285.962 71.296 285.834 72.448C285.77 73.536 285.61 74.72 285.354 76H255.402C255.402 78.688 255.722 81.216 256.362 83.584C257.066 85.888 258.09 87.904 259.434 89.632C260.778 91.36 262.474 92.736 264.522 93.76C266.57 94.72 268.97 95.2 271.722 95.2C273.962 95.2 276.234 94.88 278.538 94.24C280.842 93.6 282.57 92.768 283.722 91.744L285.066 93.28ZM267.498 55.072C263.85 55.072 261.066 56.32 259.146 58.816C257.226 61.248 256.074 65.568 255.69 71.776H276.81C276.874 71.2 276.906 70.656 276.906 70.144C276.97 69.568 277.002 69.024 277.002 68.512C277.002 64.416 276.234 61.152 274.698 58.72C273.162 56.288 270.762 55.072 267.498 55.072ZM345.923 100H325.283V97.6C327.011 96.704 328.899 95.936 330.947 95.296V72.544C330.947 67.68 330.243 63.84 328.835 61.024C327.427 58.208 324.867 56.8 321.155 56.8C319.555 56.8 318.051 57.088 316.643 57.664C315.299 58.24 314.083 59.04 312.995 60.064C311.971 61.024 311.075 62.144 310.307 63.424C309.539 64.64 308.931 65.92 308.483 67.264V95.296C310.467 95.68 312.387 96.448 314.243 97.6V100H293.507V97.6C295.107 96.768 297.219 96 299.843 95.296V57.568L293.507 56.8V54.304C295.171 53.6 297.091 52.96 299.267 52.384C301.443 51.808 303.715 51.296 306.083 50.848H308.483V61.6H308.579C309.923 58.656 311.843 56.128 314.339 54.016C316.899 51.904 319.971 50.848 323.555 50.848C326.115 50.848 328.387 51.168 330.371 51.808C332.419 52.384 334.115 53.44 335.459 54.976C336.803 56.512 337.827 58.592 338.531 61.216C339.235 63.776 339.587 67.04 339.587 71.008V95.296C342.147 95.744 344.259 96.512 345.923 97.6V100ZM348.971 54.304C351.403 52.768 353.963 51.68 356.651 51.04V42.88C357.483 42.176 358.443 41.568 359.531 41.056C360.683 40.48 361.803 39.936 362.891 39.424H365.291V52H379.691V56.8H365.291V84.64C365.291 88.48 365.899 91.2 367.115 92.8C368.331 94.4 370.155 95.2 372.587 95.2C373.739 95.2 375.179 95.136 376.907 95.008C378.635 94.816 380.107 94.496 381.323 94.048L381.995 95.488C381.483 96.064 380.747 96.672 379.787 97.312C378.891 97.952 377.835 98.56 376.619 99.136C375.467 99.712 374.187 100.192 372.779 100.576C371.371 100.96 369.931 101.152 368.459 101.152C364.619 101.152 361.675 100.064 359.627 97.888C357.643 95.712 356.651 92.192 356.651 87.328V56.8H348.971V54.304Z" fill="#888888"/>
</svg>
